<svg width="16" height="16" viewBox="0 0 16 16" fill="none" xmlns="http://www.w3.org/2000/svg">
<path d="M11.9334 11.5933C11.76 11.06 11.26 10.6667 10.6667 10.6667H10V8.66666C10 8.48985 9.9298 8.32028 9.80478 8.19526C9.67975 8.07023 9.51018 7.99999 9.33337 7.99999H5.33337V6.66666H6.66671C6.84352 6.66666 7.01309 6.59642 7.13811 6.4714C7.26314 6.34637 7.33337 6.17681 7.33337 5.99999V4.66666H8.66671C9.02033 4.66666 9.35947 4.52619 9.60952 4.27614C9.85956 4.02609 10 3.68695 10 3.33333V3.05999C11.9534 3.84666 13.3334 5.75999 13.3334 7.99999C13.3334 9.38666 12.8 10.6467 11.9334 11.5933ZM7.33337 13.2867C4.70004 12.96 2.66671 10.72 2.66671 7.99999C2.66671 7.58666 2.72004 7.18666 2.80671 6.80666L6.00004 9.99999V10.6667C6.00004 11.0203 6.14052 11.3594 6.39056 11.6095C6.64061 11.8595 6.97975 12 7.33337 12M8.00004 1.33333C7.12456 1.33333 6.25765 1.50577 5.44882 1.8408C4.63998 2.17583 3.90505 2.66689 3.286 3.28595C2.03575 4.53619 1.33337 6.23188 1.33337 7.99999C1.33337 9.7681 2.03575 11.4638 3.286 12.714C3.90505 13.3331 4.63998 13.8242 5.44882 14.1592C6.25765 14.4942 7.12456 14.6667 8.00004 14.6667C9.76815 14.6667 11.4638 13.9643 12.7141 12.714C13.9643 11.4638 14.6667 9.7681 14.6667 7.99999C14.6667 7.12452 14.4943 6.25761 14.1592 5.44877C13.8242 4.63993 13.3331 3.90501 12.7141 3.28595C12.095 2.66689 11.3601 2.17583 10.5513 1.8408C9.74243 1.50577 8.87552 1.33333 8.00004 1.33333Z" fill="#929292"/>
</svg>
